<svg xmlns="http://www.w3.org/2000/svg" viewBox="0 0 2000 2000"><title>Logo_Black_2000x2000</title><path d="M1000,302.65a270.41,270.41,0,0,1,135,36.17l375,216.51a220,220,0,0,1,110,190.52v588.9l-620,358-620-358V745.85A220,220,0,0,1,490,555.33L865,338.82a270.41,270.41,0,0,1,135-36.17m0-30a299.87,299.87,0,0,0-150,40.19L475,529.35a250,250,0,0,0-125,216.5v606.22l650,375.28,650-375.28V745.85a250,250,0,0,0-125-216.5L1150,312.84a299.87,299.87,0,0,0-150-40.19Z"/><polygon points="1512.85 1296.47 1569.71 1329.4 1001.1 1658.71 430.29 1329.4 487.37 1296.47 1001.1 1592.85 1512.85 1296.47"/><path d="M1000.82,1000.73a280.3,280.3,0,0,1,140.32,37.71l388.67,225.1-528.73,306.21L470.31,1263.54,860.89,1038.2a280.46,280.46,0,0,1,139.93-37.47h0m0-20a300,300,0,0,0-149.92,40.15l-420.6,242.66,570.81,329.31,568.61-329.31-418.55-242.41a299.8,299.8,0,0,0-150.35-40.4Z"/><path d="M1067.23,1444.21c-15.75-9.09-15.83-23.79-.17-32.83l283.41-163.63c15.65-9,41.11-9,56.86.11s15.83,23.79.18,32.83l-283.42,163.63C1108.44,1453.35,1083,1453.31,1067.23,1444.21Z"/><path d="M877.1,1334.44c-15.75-9.09-15.83-23.79-.17-32.83l188.94-109.08c15.65-9,41.11-9,56.86.1s15.83,23.79.18,32.83L934,1334.54C918.31,1343.58,892.85,1343.54,877.1,1334.44Z"/><path d="M592.5,1279.21c-15.75-9.09-15.83-23.79-.18-32.83l283.42-163.63c15.65-9,41.11-9,56.86.11s15.83,23.79.18,32.83L649.36,1279.32C633.71,1288.35,608.25,1288.31,592.5,1279.21Z"/><path d="M1066.05,1225.36c-15.75-9.1-15.83-23.8-.18-32.83,36.46-21.06,36.28-55.42-.42-76.6s-96.21-21.3-132.67-.24c-15.65,9-41.11,9-56.86-.11s-15.83-23.79-.18-32.83c67.72-39.09,178.25-38.89,246.4.45s68.49,103.16.77,142.26C1107.26,1234.49,1081.8,1234.45,1066.05,1225.36Z"/><path d="M877.7,1443.87c-68.15-39.34-68.49-103.16-.77-142.26,15.65-9,41.11-9,56.86.11s15.83,23.79.17,32.82c-36.46,21.06-36.27,55.42.42,76.6s96.21,21.3,132.68.24c15.65-9,41.11-9,56.86.11s15.83,23.79.17,32.83C1056.38,1483.41,945.84,1483.21,877.7,1443.87Z"/></svg>