{
    "asset" : {
        "generator" : "Khronos glTF Blender I/O v0.9.36",
        "version" : "2.0"
    },
    "scene" : 0,
    "scenes" : [
        {
            "name" : "Scene",
            "nodes" : [
                0,
                23
            ]
        }
    ],
    "nodes" : [
        {
            "name" : "Light",
            "rotation" : [
                0.16907575726509094,
                0.7558803558349609,
                -0.27217137813568115,
                0.570947527885437
            ],
            "translation" : [
                4.076245307922363,
                5.903861999511719,
                -1.0054539442062378
            ]
        },
        {
            "mesh" : 0,
            "name" : "Cube_0",
            "scale" : [
                0.30000001192092896,
                0.30000001192092896,
                0.30000001192092896
            ],
            "translation" : [
                0,
                -9.572632789611816,
                0
            ]
        },
        {
            "mesh" : 1,
            "name" : "Cube_1",
            "scale" : [
                0.30000001192092896,
                0.30000001192092896,
                0.30000001192092896
            ],
            "translation" : [
                0,
                -9.572632789611816,
                0
            ]
        },
        {
            "mesh" : 2,
            "name" : "Cube_2",
            "scale" : [
                0.30000001192092896,
                0.30000001192092896,
                0.30000001192092896
            ],
            "translation" : [
                0,
                -9.572632789611816,
                0
            ]
        },
        {
            "children" : [
                1,
                2,
                3
            ],
            "name" : "Cube",
            "scale" : [
                0.5052599906921387,
                0.5052599906921387,
                0.5052599906921387
            ],
            "translation" : [
                0,
                6.945930004119873,
                0
            ]
        },
        {
            "name" : "Lamp.014"
        },
        {
            "children" : [
                5
            ],
            "name" : "Lamp",
            "rotation" : [
                0.16907444596290588,
                0.7558797001838684,
                -0.2721706032752991,
                0.5709490180015564
            ],
            "scale" : [
                0.9999975562095642,
                0.9999960660934448,
                0.9999958276748657
            ],
            "translation" : [
                4.076250076293945,
                5.903860092163086,
                -1.0054500102996826
            ]
        },
        {
            "name" : "Lamp.003"
        },
        {
            "children" : [
                7
            ],
            "name" : "Lamp.004",
            "rotation" : [
                0.16907444596290588,
                0.7558797001838684,
                -0.2721706032752991,
                0.5709490180015564
            ],
            "scale" : [
                0.9999975562095642,
                0.9999960660934448,
                0.9999958276748657
            ],
            "translation" : [
                -0.005940000060945749,
                8.510950088500977,
                0.3195199966430664
            ]
        },
        {
            "name" : "Lamp.002"
        },
        {
            "children" : [
                9
            ],
            "name" : "Lamp.005",
            "rotation" : [
                0.16907444596290588,
                0.7558797001838684,
                -0.2721706032752991,
                0.5709490180015564
            ],
            "scale" : [
                0.9999975562095642,
                0.9999960660934448,
                0.9999958276748657
            ],
            "translation" : [
                -0.005940000060945749,
                -1.9790899753570557,
                0.3195199966430664
            ]
        },
        {
            "name" : "Lamp.001"
        },
        {
            "children" : [
                11
            ],
            "name" : "Lamp.006",
            "rotation" : [
                0.16907444596290588,
                0.7558797001838684,
                -0.2721706032752991,
                0.5709490180015564
            ],
            "scale" : [
                0.9999975562095642,
                0.9999960660934448,
                0.9999958276748657
            ],
            "translation" : [
                -0.005940000060945749,
                6.213659763336182,
                -2.7731399536132812
            ]
        },
        {
            "name" : "Lamp.000"
        },
        {
            "children" : [
                13
            ],
            "name" : "Lamp.007",
            "rotation" : [
                0.16907444596290588,
                0.7558797001838684,
                -0.2721706032752991,
                0.5709490180015564
            ],
            "scale" : [
                0.9999975562095642,
                0.9999960660934448,
                0.9999958276748657
            ],
            "translation" : [
                -0.005940000060945749,
                1.8859699964523315,
                -2.7731399536132812
            ]
        },
        {
            "name" : "Lamp.009"
        },
        {
            "children" : [
                15
            ],
            "name" : "Lamp.008",
            "rotation" : [
                0.16907444596290588,
                0.7558797001838684,
                -0.2721706032752991,
                0.5709490180015564
            ],
            "scale" : [
                0.9999975562095642,
                0.9999960660934448,
                0.9999958276748657
            ],
            "translation" : [
                3.698930025100708,
                5.903860092163086,
                5.515560150146484
            ]
        },
        {
            "name" : "Lamp.011"
        },
        {
            "children" : [
                17
            ],
            "name" : "Lamp.010",
            "rotation" : [
                0.16907444596290588,
                0.7558797001838684,
                -0.2721706032752991,
                0.5709490180015564
            ],
            "scale" : [
                0.9999975562095642,
                0.9999960660934448,
                0.9999958276748657
            ],
            "translation" : [
                -3.6975998878479004,
                5.903860092163086,
                5.515560150146484
            ]
        },
        {
            "name" : "Lamp.013"
        },
        {
            "children" : [
                19
            ],
            "name" : "Lamp.012",
            "rotation" : [
                0.16907444596290588,
                0.7558797001838684,
                -0.2721706032752991,
                0.5709490180015564
            ],
            "scale" : [
                0.9999975562095642,
                0.9999960660934448,
                0.9999958276748657
            ],
            "translation" : [
                -3.6975998878479004,
                5.903860092163086,
                -1.0054500102996826
            ]
        },
        {
            "children" : [
                4,
                6,
                8,
                10,
                12,
                14,
                16,
                18,
                20
            ],
            "name" : "Root"
        },
        {
            "children" : [
                21
            ],
            "name" : "RootNode (model correction matrix)"
        },
        {
            "children" : [
                22
            ],
            "name" : "RootNode (gltf orientation matrix)"
        }
    ],
    "materials" : [
        {
            "doubleSided" : true,
            "emissiveFactor" : [
                0,
                0,
                0
            ],
            "name" : "Material.007",
            "pbrMetallicRoughness" : {
                "baseColorFactor" : [
                    0.800000011920929,
                    0.7042762637138367,
                    0.47414281964302063,
                    1
                ],
                "metallicFactor" : 0,
                "roughnessFactor" : 0.6000000238418579
            }
        },
        {
            "doubleSided" : true,
            "emissiveFactor" : [
                0,
                0,
                0
            ],
            "name" : "Material.008",
            "pbrMetallicRoughness" : {
                "baseColorFactor" : [
                    0.34238243103027344,
                    0.22420459985733032,
                    0.12328886985778809,
                    1
                ],
                "metallicFactor" : 0,
                "roughnessFactor" : 0.6000000238418579
            }
        },
        {
            "doubleSided" : true,
            "emissiveFactor" : [
                0,
                0,
                0
            ],
            "name" : "Material.010",
            "pbrMetallicRoughness" : {
                "baseColorFactor" : [
                    0.004222183953970671,
                    0.021990902721881866,
                    0.8000000715255737,
                    1
                ],
                "metallicFactor" : 0,
                "roughnessFactor" : 0.6000000238418579
            }
        }
    ],
    "meshes" : [
        {
            "name" : "Cube_0",
            "primitives" : [
                {
                    "attributes" : {
                        "POSITION" : 0,
                        "NORMAL" : 1
                    },
                    "indices" : 2,
                    "material" : 0
                }
            ]
        },
        {
            "name" : "Cube_1",
            "primitives" : [
                {
                    "attributes" : {
                        "POSITION" : 3,
                        "NORMAL" : 4
                    },
                    "indices" : 5,
                    "material" : 1
                }
            ]
        },
        {
            "name" : "Cube_2",
            "primitives" : [
                {
                    "attributes" : {
                        "POSITION" : 6,
                        "NORMAL" : 7
                    },
                    "indices" : 8,
                    "material" : 2
                }
            ]
        }
    ],
    "accessors" : [
        {
            "bufferView" : 0,
            "componentType" : 5126,
            "count" : 1777,
            "max" : [
                3.945349931716919,
                1.2306100130081177,
                1.4876099824905396
            ],
            "min" : [
                -3.945349931716919,
                -13.766639709472656,
                -0.9988999962806702
            ],
            "type" : "VEC3"
        },
        {
            "bufferView" : 1,
            "componentType" : 5126,
            "count" : 1777,
            "type" : "VEC3"
        },
        {
            "bufferView" : 2,
            "componentType" : 5123,
            "count" : 2586,
            "type" : "SCALAR"
        },
        {
            "bufferView" : 3,
            "componentType" : 5126,
            "count" : 800,
            "max" : [
                1.4761699438095093,
                -6.8784499168396,
                0.7109299898147583
            ],
            "min" : [
                -1.4761699438095093,
                -13.363380432128906,
                -1.1624900102615356
            ],
            "type" : "VEC3"
        },
        {
            "bufferView" : 4,
            "componentType" : 5126,
            "count" : 800,
            "type" : "VEC3"
        },
        {
            "bufferView" : 5,
            "componentType" : 5123,
            "count" : 1176,
            "type" : "SCALAR"
        },
        {
            "bufferView" : 6,
            "componentType" : 5126,
            "count" : 480,
            "max" : [
                2.534600019454956,
                -1.1126699447631836,
                0.8769800066947937
            ],
            "min" : [
                -2.534600019454956,
                -6.995790004730225,
                -1.311210036277771
            ],
            "type" : "VEC3"
        },
        {
            "bufferView" : 7,
            "componentType" : 5126,
            "count" : 480,
            "type" : "VEC3"
        },
        {
            "bufferView" : 8,
            "componentType" : 5123,
            "count" : 720,
            "type" : "SCALAR"
        }
    ],
    "bufferViews" : [
        {
            "buffer" : 0,
            "byteLength" : 21324,
            "byteOffset" : 0
        },
        {
            "buffer" : 0,
            "byteLength" : 21324,
            "byteOffset" : 21324
        },
        {
            "buffer" : 0,
            "byteLength" : 5172,
            "byteOffset" : 42648
        },
        {
            "buffer" : 0,
            "byteLength" : 9600,
            "byteOffset" : 47820
        },
        {
            "buffer" : 0,
            "byteLength" : 9600,
            "byteOffset" : 57420
        },
        {
            "buffer" : 0,
            "byteLength" : 2352,
            "byteOffset" : 67020
        },
        {
            "buffer" : 0,
            "byteLength" : 5760,
            "byteOffset" : 69372
        },
        {
            "buffer" : 0,
            "byteLength" : 5760,
            "byteOffset" : 75132
        },
        {
            "buffer" : 0,
            "byteLength" : 1440,
            "byteOffset" : 80892
        }
    ],
    "buffers" : [
        {
            "byteLength" : 82332,
            "uri" : "data:application/octet-stream;base64,"
        }
    ]
}
