{
    "asset" : {
        "generator" : "Khronos glTF Blender I/O v0.9.36",
        "version" : "2.0"
    },
    "scene" : 0,
    "scenes" : [
        {
            "name" : "Scene",
            "nodes" : [
                0,
                1,
                2,
                3,
                4,
                5,
                6,
                7,
                8
            ]
        }
    ],
    "nodes" : [
        {
            "mesh" : 0,
            "name" : "Cube",
            "translation" : [
                0,
                0.1666666716337204,
                0.3409859836101532
            ]
        },
        {
            "name" : "Camera",
            "rotation" : [
                0.483536034822464,
                0.33687159419059753,
                -0.20870360732078552,
                0.7804827094078064
            ],
            "translation" : [
                7.358891487121582,
                4.958309173583984,
                6.925790786743164
            ]
        },
        {
            "mesh" : 1,
            "name" : "Cube.001",
            "rotation" : [
                0,
                -0.7071067690849304,
                0,
                0.7071068286895752
            ],
            "scale" : [
                0.30000001192092896,
                0.30000001192092896,
                0.30000001192092896
            ],
            "translation" : [
                0,
                0.1666666716337204,
                0.8409859538078308
            ]
        },
        {
            "name" : "Text",
            "rotation" : [
                0.7071067690849304,
                0,
                0,
                0.7071068286895752
            ],
            "scale" : [
                0.20493605732917786,
                0.20493605732917786,
                0.20493605732917786
            ],
            "translation" : [
                0,
                0.6666666269302368,
                1.3409860134124756
            ]
        },
        {
            "name" : "Point",
            "scale" : [
                0.5,
                0.5,
                0.5
            ],
            "translation" : [
                0.5,
                0.6666666269302368,
                0.3409859836101532
            ]
        },
        {
            "name" : "Point.001",
            "scale" : [
                0.5,
                0.5,
                0.5
            ],
            "translation" : [
                -0.5,
                0.6666666269302368,
                0.3409859836101532
            ]
        },
        {
            "name" : "Point.002",
            "scale" : [
                0.5,
                0.5,
                0.5
            ],
            "translation" : [
                0,
                -0.3333333730697632,
                0.88690185546875
            ]
        },
        {
            "mesh" : 2,
            "name" : "Text.001",
            "rotation" : [
                0.7071067690849304,
                0,
                0,
                0.7071068286895752
            ],
            "scale" : [
                0.20493605732917786,
                0.20493605732917786,
                0.20493605732917786
            ],
            "translation" : [
                0,
                0.6666666269302368,
                1.3409860134124756
            ]
        },
        {
            "mesh" : 3,
            "name" : "Circle",
            "rotation" : [
                -0.7071067690849304,
                0,
                0,
                0.7071068286895752
            ],
            "translation" : [
                3.9522476196289062,
                0.731056272983551,
                -0.7706150412559509
            ]
        }
    ],
    "materials" : [
        {
            "doubleSided" : true,
            "name" : "Material",
            "pbrMetallicRoughness" : {
                "baseColorFactor" : [
                    0.035217996686697006,
                    0.035217996686697006,
                    0.035217996686697006,
                    1
                ],
                "metallicFactor" : 0,
                "roughnessFactor" : 0.4000000059604645
            }
        },
        {
            "doubleSided" : true,
            "name" : "emission",
            "pbrMetallicRoughness" : {
                "baseColorFactor" : [
                    0.07798255234956741,
                    0.4390978217124939,
                    0.8000000715255737,
                    1
                ],
                "metallicFactor" : 0,
                "roughnessFactor" : 0.5
            }
        },
        {
            "doubleSided" : true,
            "name" : "grey",
            "pbrMetallicRoughness" : {
                "baseColorFactor" : [
                    0.027209926396608353,
                    0.027209926396608353,
                    0.027209926396608353,
                    1
                ],
                "metallicFactor" : 0,
                "roughnessFactor" : 0.5
            }
        },
        {
            "doubleSided" : true,
            "name" : "grey 2",
            "pbrMetallicRoughness" : {
                "baseColorFactor" : [
                    0.0946258008480072,
                    0.0946258008480072,
                    0.0946258008480072,
                    1
                ],
                "metallicFactor" : 0,
                "roughnessFactor" : 0.5
            }
        },
        {
            "doubleSided" : true,
            "name" : "Material.001",
            "pbrMetallicRoughness" : {
                "baseColorFactor" : [
                    0.012983029708266258,
                    0.012286489829421043,
                    0.018500223755836487,
                    1
                ],
                "metallicFactor" : 0,
                "roughnessFactor" : 0.5
            }
        },
        {
            "doubleSided" : true,
            "emissiveFactor" : [
                0.015841184183955193,
                0.1905701756477356,
                0.36723870038986206
            ],
            "name" : "Material.002",
            "pbrMetallicRoughness" : {}
        },
        {
            "doubleSided" : true,
            "name" : "Material.004",
            "pbrMetallicRoughness" : {
                "baseColorFactor" : [
                    1,
                    1,
                    1,
                    1
                ],
                "metallicFactor" : 0,
                "roughnessFactor" : 0.5
            }
        },
        {
            "doubleSided" : true,
            "name" : "Material.005",
            "pbrMetallicRoughness" : {
                "baseColorFactor" : [
                    0,
                    0.12334249913692474,
                    0.8000000715255737,
                    1
                ],
                "metallicFactor" : 0,
                "roughnessFactor" : 0.5
            }
        }
    ],
    "meshes" : [
        {
            "name" : "Cube",
            "primitives" : [
                {
                    "attributes" : {
                        "POSITION" : 0,
                        "NORMAL" : 1,
                        "TEXCOORD_0" : 2
                    },
                    "indices" : 3,
                    "material" : 0
                },
                {
                    "attributes" : {
                        "POSITION" : 4,
                        "NORMAL" : 5,
                        "TEXCOORD_0" : 6
                    },
                    "indices" : 7,
                    "material" : 1
                },
                {
                    "attributes" : {
                        "POSITION" : 8,
                        "NORMAL" : 9,
                        "TEXCOORD_0" : 10
                    },
                    "indices" : 11,
                    "material" : 2
                },
                {
                    "attributes" : {
                        "POSITION" : 12,
                        "NORMAL" : 13,
                        "TEXCOORD_0" : 14
                    },
                    "indices" : 15,
                    "material" : 3
                }
            ]
        },
        {
            "name" : "Cube.009",
            "primitives" : [
                {
                    "attributes" : {
                        "POSITION" : 16,
                        "NORMAL" : 17,
                        "TEXCOORD_0" : 18
                    },
                    "indices" : 19,
                    "material" : 4
                },
                {
                    "attributes" : {
                        "POSITION" : 20,
                        "NORMAL" : 21,
                        "TEXCOORD_0" : 22
                    },
                    "indices" : 23,
                    "material" : 5
                }
            ]
        },
        {
            "name" : "Text.001",
            "primitives" : [
                {
                    "attributes" : {
                        "POSITION" : 24,
                        "NORMAL" : 25
                    },
                    "indices" : 26,
                    "material" : 6
                }
            ]
        },
        {
            "name" : "Circle",
            "primitives" : [
                {
                    "attributes" : {
                        "POSITION" : 27,
                        "NORMAL" : 28,
                        "TEXCOORD_0" : 29
                    },
                    "indices" : 30,
                    "material" : 7
                }
            ]
        }
    ],
    "accessors" : [
        {
            "bufferView" : 0,
            "componentType" : 5126,
            "count" : 1684,
            "max" : [
                1.0208184719085693,
                1.0212498903274536,
                1.0286059379577637
            ],
            "min" : [
                -1.012751579284668,
                -1.012506365776062,
                -1.0240886211395264
            ],
            "type" : "VEC3"
        },
        {
            "bufferView" : 1,
            "componentType" : 5126,
            "count" : 1684,
            "type" : "VEC3"
        },
        {
            "bufferView" : 2,
            "componentType" : 5126,
            "count" : 1684,
            "type" : "VEC2"
        },
        {
            "bufferView" : 3,
            "componentType" : 5123,
            "count" : 2574,
            "type" : "SCALAR"
        },
        {
            "bufferView" : 4,
            "componentType" : 5126,
            "count" : 16,
            "max" : [
                0.7969452738761902,
                0.7969452738761902,
                -0.7728708982467651
            ],
            "min" : [
                -0.7969452738761902,
                -0.7969452738761902,
                -0.7728708982467651
            ],
            "type" : "VEC3"
        },
        {
            "bufferView" : 5,
            "componentType" : 5126,
            "count" : 16,
            "type" : "VEC3"
        },
        {
            "bufferView" : 6,
            "componentType" : 5126,
            "count" : 16,
            "type" : "VEC2"
        },
        {
            "bufferView" : 7,
            "componentType" : 5123,
            "count" : 48,
            "type" : "SCALAR"
        },
        {
            "bufferView" : 8,
            "componentType" : 5126,
            "count" : 28,
            "max" : [
                0.8940747380256653,
                0.8940747380256653,
                1
            ],
            "min" : [
                -0.8940747380256653,
                -0.8940747380256653,
                -0.7728708982467651
            ],
            "type" : "VEC3"
        },
        {
            "bufferView" : 9,
            "componentType" : 5126,
            "count" : 28,
            "type" : "VEC3"
        },
        {
            "bufferView" : 10,
            "componentType" : 5126,
            "count" : 28,
            "type" : "VEC2"
        },
        {
            "bufferView" : 11,
            "componentType" : 5123,
            "count" : 54,
            "type" : "SCALAR"
        },
        {
            "bufferView" : 12,
            "componentType" : 5126,
            "count" : 8,
            "max" : [
                0.744644820690155,
                0.744644820690155,
                -0.7728708982467651
            ],
            "min" : [
                -0.744644820690155,
                -0.744644820690155,
                -0.7728708982467651
            ],
            "type" : "VEC3"
        },
        {
            "bufferView" : 13,
            "componentType" : 5126,
            "count" : 8,
            "type" : "VEC3"
        },
        {
            "bufferView" : 14,
            "componentType" : 5126,
            "count" : 8,
            "type" : "VEC2"
        },
        {
            "bufferView" : 15,
            "componentType" : 5123,
            "count" : 24,
            "type" : "SCALAR"
        },
        {
            "bufferView" : 16,
            "componentType" : 5126,
            "count" : 1270,
            "max" : [
                1.519142746925354,
                1.9169825315475464,
                2.4272890090942383
            ],
            "min" : [
                -2.5293221473693848,
                -1.5514938831329346,
                -2.4272892475128174
            ],
            "type" : "VEC3"
        },
        {
            "bufferView" : 17,
            "componentType" : 5126,
            "count" : 1270,
            "type" : "VEC3"
        },
        {
            "bufferView" : 18,
            "componentType" : 5126,
            "count" : 1270,
            "type" : "VEC2"
        },
        {
            "bufferView" : 19,
            "componentType" : 5123,
            "count" : 1974,
            "type" : "SCALAR"
        },
        {
            "bufferView" : 20,
            "componentType" : 5126,
            "count" : 48,
            "max" : [
                1.519142746925354,
                0.09208491444587708,
                2.0125484466552734
            ],
            "min" : [
                1.3003686666488647,
                -0.22248132526874542,
                -2.0125484466552734
            ],
            "type" : "VEC3"
        },
        {
            "bufferView" : 21,
            "componentType" : 5126,
            "count" : 48,
            "type" : "VEC3"
        },
        {
            "bufferView" : 22,
            "componentType" : 5126,
            "count" : 48,
            "type" : "VEC2"
        },
        {
            "bufferView" : 23,
            "componentType" : 5123,
            "count" : 72,
            "type" : "SCALAR"
        },
        {
            "bufferView" : 24,
            "componentType" : 5126,
            "count" : 3008,
            "max" : [
                3.7902324199676514,
                0.029999999329447746,
                0.008372093550860882
            ],
            "min" : [
                -3.8720929622650146,
                -0.029999999329447746,
                -0.6595348715782166
            ],
            "type" : "VEC3"
        },
        {
            "bufferView" : 25,
            "componentType" : 5126,
            "count" : 3008,
            "type" : "VEC3"
        },
        {
            "bufferView" : 26,
            "componentType" : 5123,
            "count" : 7740,
            "type" : "SCALAR"
        },
        {
            "bufferView" : 27,
            "componentType" : 5126,
            "count" : 30,
            "max" : [
                -3.1196000576019287,
                -1.9999995231628418,
                0.1341857761144638
            ],
            "min" : [
                -4.807104110717773,
                -1.9999995231628418,
                -0.13418592512607574
            ],
            "type" : "VEC3"
        },
        {
            "bufferView" : 28,
            "componentType" : 5126,
            "count" : 30,
            "type" : "VEC3"
        },
        {
            "bufferView" : 29,
            "componentType" : 5126,
            "count" : 30,
            "type" : "VEC2"
        },
        {
            "bufferView" : 30,
            "componentType" : 5123,
            "count" : 84,
            "type" : "SCALAR"
        }
    ],
    "bufferViews" : [
        {
            "buffer" : 0,
            "byteLength" : 20208,
            "byteOffset" : 0
        },
        {
            "buffer" : 0,
            "byteLength" : 20208,
            "byteOffset" : 20208
        },
        {
            "buffer" : 0,
            "byteLength" : 13472,
            "byteOffset" : 40416
        },
        {
            "buffer" : 0,
            "byteLength" : 5148,
            "byteOffset" : 53888
        },
        {
            "buffer" : 0,
            "byteLength" : 192,
            "byteOffset" : 59036
        },
        {
            "buffer" : 0,
            "byteLength" : 192,
            "byteOffset" : 59228
        },
        {
            "buffer" : 0,
            "byteLength" : 128,
            "byteOffset" : 59420
        },
        {
            "buffer" : 0,
            "byteLength" : 96,
            "byteOffset" : 59548
        },
        {
            "buffer" : 0,
            "byteLength" : 336,
            "byteOffset" : 59644
        },
        {
            "buffer" : 0,
            "byteLength" : 336,
            "byteOffset" : 59980
        },
        {
            "buffer" : 0,
            "byteLength" : 224,
            "byteOffset" : 60316
        },
        {
            "buffer" : 0,
            "byteLength" : 108,
            "byteOffset" : 60540
        },
        {
            "buffer" : 0,
            "byteLength" : 96,
            "byteOffset" : 60648
        },
        {
            "buffer" : 0,
            "byteLength" : 96,
            "byteOffset" : 60744
        },
        {
            "buffer" : 0,
            "byteLength" : 64,
            "byteOffset" : 60840
        },
        {
            "buffer" : 0,
            "byteLength" : 48,
            "byteOffset" : 60904
        },
        {
            "buffer" : 0,
            "byteLength" : 15240,
            "byteOffset" : 60952
        },
        {
            "buffer" : 0,
            "byteLength" : 15240,
            "byteOffset" : 76192
        },
        {
            "buffer" : 0,
            "byteLength" : 10160,
            "byteOffset" : 91432
        },
        {
            "buffer" : 0,
            "byteLength" : 3948,
            "byteOffset" : 101592
        },
        {
            "buffer" : 0,
            "byteLength" : 576,
            "byteOffset" : 105540
        },
        {
            "buffer" : 0,
            "byteLength" : 576,
            "byteOffset" : 106116
        },
        {
            "buffer" : 0,
            "byteLength" : 384,
            "byteOffset" : 106692
        },
        {
            "buffer" : 0,
            "byteLength" : 144,
            "byteOffset" : 107076
        },
        {
            "buffer" : 0,
            "byteLength" : 36096,
            "byteOffset" : 107220
        },
        {
            "buffer" : 0,
            "byteLength" : 36096,
            "byteOffset" : 143316
        },
        {
            "buffer" : 0,
            "byteLength" : 15480,
            "byteOffset" : 179412
        },
        {
            "buffer" : 0,
            "byteLength" : 360,
            "byteOffset" : 194892
        },
        {
            "buffer" : 0,
            "byteLength" : 360,
            "byteOffset" : 195252
        },
        {
            "buffer" : 0,
            "byteLength" : 240,
            "byteOffset" : 195612
        },
        {
            "buffer" : 0,
            "byteLength" : 168,
            "byteOffset" : 195852
        }
    ],
    "buffers" : [
        {
            "byteLength" : 196020,
            "uri" : "data:application/octet-stream;base64,"
        }
    ]
}
