{
    "asset" : {
        "generator" : "Khronos glTF Blender I/O v0.9.36",
        "version" : "2.0"
    },
    "scene" : 0,
    "scenes" : [
        {
            "name" : "Scene",
            "nodes" : [
                0,
                1,
                8,
                9,
                10,
                11,
                12
            ]
        }
    ],
    "nodes" : [
        {
            "name" : "Text_Original",
            "scale" : [
                0.35999998450279236,
                0.35999998450279236,
                0.35999998450279236
            ],
            "translation" : [
                0,
                0.4000000059604645,
                0.699999988079071
            ]
        },
        {
            "mesh" : 0,
            "name" : "Circle",
            "scale" : [
                0.25,
                0.25,
                0.25
            ],
            "translation" : [
                0,
                0.3499999940395355,
                0.699999988079071
            ]
        },
        {
            "mesh" : 1,
            "name" : "CharacterModel.001_Hair_Color_0"
        },
        {
            "mesh" : 2,
            "name" : "CharacterModel.001_Material.001_0"
        },
        {
            "children" : [
                2,
                3
            ],
            "name" : "CharacterModel.001",
            "rotation" : [
                -0.7071068286895752,
                0,
                0,
                0.7071067094802856
            ],
            "scale" : [
                100,
                100,
                100
            ]
        },
        {
            "children" : [
                4
            ],
            "name" : "RootNode"
        },
        {
            "children" : [
                5
            ],
            "name" : "033ec99ac2764d7bb89af6cafb3cdf63.fbx",
            "rotation" : [
                0.7071068286895752,
                0,
                0,
                0.7071068286895752
            ]
        },
        {
            "children" : [
                6
            ],
            "name" : "RootNode (model correction matrix)"
        },
        {
            "children" : [
                7
            ],
            "name" : "RootNode (gltf orientation matrix)",
            "rotation" : [
                0,
                -1,
                0,
                1
            ],
            "scale" : [
                0.007000002544373274,
                0.00700000487267971,
                0.00700000487267971
            ],
            "translation" : [
                0,
                0.699999988079071,
                -0.20000000298023224
            ]
        },
        {
            "mesh" : 3,
            "name" : "Text_Model",
            "scale" : [
                0.35999998450279236,
                0.35999998450279236,
                0.35999998450279236
            ],
            "translation" : [
                0,
                0.4000000059604645,
                0.699999988079071
            ]
        },
        {
            "mesh" : 4,
            "name" : "Border"
        },
        {
            "name" : "Light",
            "rotation" : [
                0.16907575726509094,
                0.7558803558349609,
                -0.27217137813568115,
                0.570947527885437
            ],
            "translation" : [
                4.076245307922363,
                5.903861999511719,
                -1.0054539442062378
            ]
        },
        {
            "name" : "Camera",
            "rotation" : [
                0.483536034822464,
                0.33687159419059753,
                -0.20870360732078552,
                0.7804827094078064
            ],
            "translation" : [
                7.358891487121582,
                4.958309173583984,
                6.925790786743164
            ]
        }
    ],
    "materials" : [
        {
            "doubleSided" : true,
            "name" : "Material.001",
            "pbrMetallicRoughness" : {
                "baseColorFactor" : [
                    0.13843166828155518,
                    0.0012140854960307479,
                    0.001214110292494297,
                    1
                ],
                "metallicFactor" : 0,
                "roughnessFactor" : 0.5
            }
        },
        {
            "doubleSided" : true,
            "name" : "Material.002",
            "pbrMetallicRoughness" : {
                "baseColorFactor" : [
                    0.13843166828155518,
                    0.0012140854960307479,
                    0.001214110292494297,
                    1
                ],
                "metallicFactor" : 0,
                "roughnessFactor" : 0.5
            }
        },
        {
            "doubleSided" : true,
            "emissiveFactor" : [
                0,
                0,
                0
            ],
            "name" : "Hair_Color",
            "pbrMetallicRoughness" : {
                "baseColorFactor" : [
                    0.03627820685505867,
                    0.04117845743894577,
                    0.1237032413482666,
                    1
                ],
                "metallicFactor" : 0,
                "roughnessFactor" : 0.823941707611084
            }
        },
        {
            "doubleSided" : true,
            "name" : "Material.005",
            "pbrMetallicRoughness" : {
                "baseColorFactor" : [
                    0.8000000715255737,
                    0.0005825048428960145,
                    0,
                    1
                ],
                "metallicFactor" : 0,
                "roughnessFactor" : 0.5
            }
        },
        {
            "doubleSided" : true,
            "emissiveFactor" : [
                0,
                0,
                0
            ],
            "name" : "Material.004",
            "pbrMetallicRoughness" : {
                "baseColorFactor" : [
                    0.19858434796333313,
                    0.338295578956604,
                    0.8000000715255737,
                    1
                ],
                "metallicFactor" : 0,
                "roughnessFactor" : 0.823941707611084
            }
        },
        {
            "doubleSided" : true,
            "name" : "Material.006",
            "pbrMetallicRoughness" : {
                "baseColorFactor" : [
                    0.8000000715255737,
                    0,
                    0,
                    1
                ],
                "metallicFactor" : 0,
                "roughnessFactor" : 0.5
            }
        },
        {
            "doubleSided" : true,
            "name" : "Material.007",
            "pbrMetallicRoughness" : {
                "baseColorFactor" : [
                    1,
                    1,
                    1,
                    1
                ],
                "metallicFactor" : 0,
                "roughnessFactor" : 0.5
            }
        },
        {
            "doubleSided" : true,
            "name" : "bg",
            "pbrMetallicRoughness" : {
                "baseColorFactor" : [
                    0.13843166828155518,
                    0.0012140854960307479,
                    0.001214110292494297,
                    1
                ],
                "metallicFactor" : 0,
                "roughnessFactor" : 0.4000000059604645
            }
        },
        {
            "doubleSided" : true,
            "name" : "border",
            "pbrMetallicRoughness" : {
                "baseColorFactor" : [
                    0.6172068119049072,
                    0.04817178100347519,
                    0.04817185923457146,
                    1
                ],
                "metallicFactor" : 0,
                "roughnessFactor" : 0.5
            }
        }
    ],
    "meshes" : [
        {
            "name" : "Circle",
            "primitives" : [
                {
                    "attributes" : {
                        "POSITION" : 0,
                        "NORMAL" : 1,
                        "TEXCOORD_0" : 2
                    },
                    "indices" : 3,
                    "material" : 0
                },
                {
                    "attributes" : {
                        "POSITION" : 4,
                        "NORMAL" : 5,
                        "TEXCOORD_0" : 6
                    },
                    "indices" : 7,
                    "material" : 1
                }
            ]
        },
        {
            "name" : "CharacterModel.001_Hair_Color_0",
            "primitives" : [
                {
                    "attributes" : {
                        "POSITION" : 8,
                        "NORMAL" : 9
                    },
                    "indices" : 10,
                    "material" : 2
                },
                {
                    "attributes" : {
                        "POSITION" : 11,
                        "NORMAL" : 12
                    },
                    "indices" : 13,
                    "material" : 3
                }
            ]
        },
        {
            "name" : "CharacterModel.001_Material.001_0",
            "primitives" : [
                {
                    "attributes" : {
                        "POSITION" : 14,
                        "NORMAL" : 15
                    },
                    "indices" : 16,
                    "material" : 4
                },
                {
                    "attributes" : {
                        "POSITION" : 17,
                        "NORMAL" : 18
                    },
                    "indices" : 19,
                    "material" : 5
                }
            ]
        },
        {
            "name" : "Load.002",
            "primitives" : [
                {
                    "attributes" : {
                        "POSITION" : 20,
                        "NORMAL" : 21
                    },
                    "indices" : 22,
                    "material" : 6
                }
            ]
        },
        {
            "name" : "Border",
            "primitives" : [
                {
                    "attributes" : {
                        "POSITION" : 23,
                        "NORMAL" : 24,
                        "TEXCOORD_0" : 25
                    },
                    "indices" : 26,
                    "material" : 7
                },
                {
                    "attributes" : {
                        "POSITION" : 27,
                        "NORMAL" : 28,
                        "TEXCOORD_0" : 29
                    },
                    "indices" : 30,
                    "material" : 8
                }
            ]
        }
    ],
    "accessors" : [
        {
            "bufferView" : 0,
            "componentType" : 5126,
            "count" : 64,
            "max" : [
                3.343186378479004,
                0.07499999552965164,
                1
            ],
            "min" : [
                -3.331944465637207,
                -0.07500001043081284,
                -0.9999999403953552
            ],
            "type" : "VEC3"
        },
        {
            "bufferView" : 1,
            "componentType" : 5126,
            "count" : 64,
            "type" : "VEC3"
        },
        {
            "bufferView" : 2,
            "componentType" : 5126,
            "count" : 64,
            "type" : "VEC2"
        },
        {
            "bufferView" : 3,
            "componentType" : 5123,
            "count" : 180,
            "type" : "SCALAR"
        },
        {
            "bufferView" : 4,
            "componentType" : 5126,
            "count" : 128,
            "max" : [
                3.343186378479004,
                0.07499999552965164,
                1
            ],
            "min" : [
                -3.331944465637207,
                -0.07500001043081284,
                -0.9999999403953552
            ],
            "type" : "VEC3"
        },
        {
            "bufferView" : 5,
            "componentType" : 5126,
            "count" : 128,
            "type" : "VEC3"
        },
        {
            "bufferView" : 6,
            "componentType" : 5126,
            "count" : 128,
            "type" : "VEC2"
        },
        {
            "bufferView" : 7,
            "componentType" : 5123,
            "count" : 192,
            "type" : "SCALAR"
        },
        {
            "bufferView" : 8,
            "componentType" : 5126,
            "count" : 524,
            "max" : [
                0.3131619095802307,
                0.5782658457756042,
                0.5569546222686768
            ],
            "min" : [
                -0.3131619095802307,
                -0.09774017333984375,
                -0.42737460136413574
            ],
            "type" : "VEC3"
        },
        {
            "bufferView" : 9,
            "componentType" : 5126,
            "count" : 524,
            "type" : "VEC3"
        },
        {
            "bufferView" : 10,
            "componentType" : 5123,
            "count" : 666,
            "type" : "SCALAR"
        },
        {
            "bufferView" : 11,
            "componentType" : 5126,
            "count" : 60,
            "max" : [
                0.3114830255508423,
                0.5551697611808777,
                0.4037432372570038
            ],
            "min" : [
                -0.3114830255508423,
                -0.09774017333984375,
                -0.42737460136413574
            ],
            "type" : "VEC3"
        },
        {
            "bufferView" : 12,
            "componentType" : 5126,
            "count" : 60,
            "type" : "VEC3"
        },
        {
            "bufferView" : 13,
            "componentType" : 5123,
            "count" : 60,
            "type" : "SCALAR"
        },
        {
            "bufferView" : 14,
            "componentType" : 5126,
            "count" : 476,
            "max" : [
                0.35979288816452026,
                0.3424640893936157,
                0.46667981147766113
            ],
            "min" : [
                -0.3446243405342102,
                -0.6392917633056641,
                -0.4884239435195923
            ],
            "type" : "VEC3"
        },
        {
            "bufferView" : 15,
            "componentType" : 5126,
            "count" : 476,
            "type" : "VEC3"
        },
        {
            "bufferView" : 16,
            "componentType" : 5123,
            "count" : 564,
            "type" : "SCALAR"
        },
        {
            "bufferView" : 17,
            "componentType" : 5126,
            "count" : 80,
            "max" : [
                0.33461177349090576,
                0.3424640893936157,
                0.43160706758499146
            ],
            "min" : [
                -0.36052364110946655,
                -0.6392917633056641,
                -0.37127187848091125
            ],
            "type" : "VEC3"
        },
        {
            "bufferView" : 18,
            "componentType" : 5126,
            "count" : 80,
            "type" : "VEC3"
        },
        {
            "bufferView" : 19,
            "componentType" : 5123,
            "count" : 84,
            "type" : "SCALAR"
        },
        {
            "bufferView" : 20,
            "componentType" : 5126,
            "count" : 3575,
            "max" : [
                1.8708791732788086,
                0.02500000037252903,
                0.2719780206680298
            ],
            "min" : [
                -1.879120945930481,
                -0.02500000037252903,
                -0.4029303789138794
            ],
            "type" : "VEC3"
        },
        {
            "bufferView" : 21,
            "componentType" : 5126,
            "count" : 3575,
            "type" : "VEC3"
        },
        {
            "bufferView" : 22,
            "componentType" : 5123,
            "count" : 9108,
            "type" : "SCALAR"
        },
        {
            "bufferView" : 23,
            "componentType" : 5126,
            "count" : 48,
            "max" : [
                1.100000023841858,
                0.4000000059604645,
                1.100000023841858
            ],
            "min" : [
                -1.100000023841858,
                -0.025000005960464478,
                -1.100000023841858
            ],
            "type" : "VEC3"
        },
        {
            "bufferView" : 24,
            "componentType" : 5126,
            "count" : 48,
            "type" : "VEC3"
        },
        {
            "bufferView" : 25,
            "componentType" : 5126,
            "count" : 48,
            "type" : "VEC2"
        },
        {
            "bufferView" : 26,
            "componentType" : 5123,
            "count" : 72,
            "type" : "SCALAR"
        },
        {
            "bufferView" : 27,
            "componentType" : 5126,
            "count" : 14,
            "max" : [
                1.100000023841858,
                0.4000000059604645,
                1.100000023841858
            ],
            "min" : [
                -1.100000023841858,
                0.4000000059604645,
                -1.100000023841858
            ],
            "type" : "VEC3"
        },
        {
            "bufferView" : 28,
            "componentType" : 5126,
            "count" : 14,
            "type" : "VEC3"
        },
        {
            "bufferView" : 29,
            "componentType" : 5126,
            "count" : 14,
            "type" : "VEC2"
        },
        {
            "bufferView" : 30,
            "componentType" : 5123,
            "count" : 24,
            "type" : "SCALAR"
        }
    ],
    "bufferViews" : [
        {
            "buffer" : 0,
            "byteLength" : 768,
            "byteOffset" : 0
        },
        {
            "buffer" : 0,
            "byteLength" : 768,
            "byteOffset" : 768
        },
        {
            "buffer" : 0,
            "byteLength" : 512,
            "byteOffset" : 1536
        },
        {
            "buffer" : 0,
            "byteLength" : 360,
            "byteOffset" : 2048
        },
        {
            "buffer" : 0,
            "byteLength" : 1536,
            "byteOffset" : 2408
        },
        {
            "buffer" : 0,
            "byteLength" : 1536,
            "byteOffset" : 3944
        },
        {
            "buffer" : 0,
            "byteLength" : 1024,
            "byteOffset" : 5480
        },
        {
            "buffer" : 0,
            "byteLength" : 384,
            "byteOffset" : 6504
        },
        {
            "buffer" : 0,
            "byteLength" : 6288,
            "byteOffset" : 6888
        },
        {
            "buffer" : 0,
            "byteLength" : 6288,
            "byteOffset" : 13176
        },
        {
            "buffer" : 0,
            "byteLength" : 1332,
            "byteOffset" : 19464
        },
        {
            "buffer" : 0,
            "byteLength" : 720,
            "byteOffset" : 20796
        },
        {
            "buffer" : 0,
            "byteLength" : 720,
            "byteOffset" : 21516
        },
        {
            "buffer" : 0,
            "byteLength" : 120,
            "byteOffset" : 22236
        },
        {
            "buffer" : 0,
            "byteLength" : 5712,
            "byteOffset" : 22356
        },
        {
            "buffer" : 0,
            "byteLength" : 5712,
            "byteOffset" : 28068
        },
        {
            "buffer" : 0,
            "byteLength" : 1128,
            "byteOffset" : 33780
        },
        {
            "buffer" : 0,
            "byteLength" : 960,
            "byteOffset" : 34908
        },
        {
            "buffer" : 0,
            "byteLength" : 960,
            "byteOffset" : 35868
        },
        {
            "buffer" : 0,
            "byteLength" : 168,
            "byteOffset" : 36828
        },
        {
            "buffer" : 0,
            "byteLength" : 42900,
            "byteOffset" : 36996
        },
        {
            "buffer" : 0,
            "byteLength" : 42900,
            "byteOffset" : 79896
        },
        {
            "buffer" : 0,
            "byteLength" : 18216,
            "byteOffset" : 122796
        },
        {
            "buffer" : 0,
            "byteLength" : 576,
            "byteOffset" : 141012
        },
        {
            "buffer" : 0,
            "byteLength" : 576,
            "byteOffset" : 141588
        },
        {
            "buffer" : 0,
            "byteLength" : 384,
            "byteOffset" : 142164
        },
        {
            "buffer" : 0,
            "byteLength" : 144,
            "byteOffset" : 142548
        },
        {
            "buffer" : 0,
            "byteLength" : 168,
            "byteOffset" : 142692
        },
        {
            "buffer" : 0,
            "byteLength" : 168,
            "byteOffset" : 142860
        },
        {
            "buffer" : 0,
            "byteLength" : 112,
            "byteOffset" : 143028
        },
        {
            "buffer" : 0,
            "byteLength" : 48,
            "byteOffset" : 143140
        }
    ],
    "buffers" : [
        {
            "byteLength" : 143188,
            "uri" : "data:application/octet-stream;base64,"
        }
    ]
}
