{
    "asset" : {
        "generator" : "Khronos glTF Blender I/O v0.9.36",
        "version" : "2.0"
    },
    "scene" : 0,
    "scenes" : [
        {
            "name" : "Scene",
            "nodes" : [
                0,
                1,
                2,
                3,
                4,
                5
            ]
        }
    ],
    "nodes" : [
        {
            "name" : "Text_Original",
            "scale" : [
                0.35999998450279236,
                0.35999998450279236,
                0.35999998450279236
            ],
            "translation" : [
                0,
                0.4000000059604645,
                0
            ]
        },
        {
            "mesh" : 0,
            "name" : "Circle",
            "scale" : [
                0.25,
                0.25,
                0.25
            ],
            "translation" : [
                0,
                0.3499999940395355,
                0
            ]
        },
        {
            "mesh" : 1,
            "name" : "Text_Model",
            "scale" : [
                0.35999998450279236,
                0.35999998450279236,
                0.35999998450279236
            ],
            "translation" : [
                0,
                0.4000000059604645,
                0
            ]
        },
        {
            "mesh" : 2,
            "name" : "Border"
        },
        {
            "name" : "Light",
            "rotation" : [
                0.16907575726509094,
                0.7558803558349609,
                -0.27217137813568115,
                0.570947527885437
            ],
            "translation" : [
                4.076245307922363,
                5.903861999511719,
                -1.0054539442062378
            ]
        },
        {
            "name" : "Camera",
            "rotation" : [
                0.483536034822464,
                0.33687159419059753,
                -0.20870360732078552,
                0.7804827094078064
            ],
            "translation" : [
                7.358891487121582,
                4.958309173583984,
                6.925790786743164
            ]
        }
    ],
    "materials" : [
        {
            "doubleSided" : true,
            "name" : "Material.001",
            "pbrMetallicRoughness" : {
                "baseColorFactor" : [
                    0.0009105652570724487,
                    0.05951125919818878,
                    0.14126335084438324,
                    1
                ],
                "metallicFactor" : 0,
                "roughnessFactor" : 0.5
            }
        },
        {
            "doubleSided" : true,
            "name" : "Material.002",
            "pbrMetallicRoughness" : {
                "baseColorFactor" : [
                    0.0009105652570724487,
                    0.05951125919818878,
                    0.14126335084438324,
                    1
                ],
                "metallicFactor" : 0,
                "roughnessFactor" : 0.5
            }
        },
        {
            "doubleSided" : true,
            "name" : "Material.003",
            "pbrMetallicRoughness" : {
                "baseColorFactor" : [
                    1,
                    1,
                    1,
                    1
                ],
                "metallicFactor" : 0,
                "roughnessFactor" : 0.5
            }
        },
        {
            "doubleSided" : true,
            "name" : "bg",
            "pbrMetallicRoughness" : {
                "baseColorFactor" : [
                    0.0009105652570724487,
                    0.05951125919818878,
                    0.14126335084438324,
                    1
                ],
                "metallicFactor" : 0,
                "roughnessFactor" : 0.4000000059604645
            }
        },
        {
            "doubleSided" : true,
            "name" : "border",
            "pbrMetallicRoughness" : {
                "baseColorFactor" : [
                    0.045186132192611694,
                    0.33716368675231934,
                    0.6307573318481445,
                    1
                ],
                "metallicFactor" : 0,
                "roughnessFactor" : 0.5
            }
        }
    ],
    "meshes" : [
        {
            "name" : "Circle",
            "primitives" : [
                {
                    "attributes" : {
                        "POSITION" : 0,
                        "NORMAL" : 1,
                        "TEXCOORD_0" : 2
                    },
                    "indices" : 3,
                    "material" : 0
                },
                {
                    "attributes" : {
                        "POSITION" : 4,
                        "NORMAL" : 5,
                        "TEXCOORD_0" : 6
                    },
                    "indices" : 7,
                    "material" : 1
                }
            ]
        },
        {
            "name" : "Load.001",
            "primitives" : [
                {
                    "attributes" : {
                        "POSITION" : 8,
                        "NORMAL" : 9
                    },
                    "indices" : 10,
                    "material" : 2
                }
            ]
        },
        {
            "name" : "Border",
            "primitives" : [
                {
                    "attributes" : {
                        "POSITION" : 11,
                        "NORMAL" : 12,
                        "TEXCOORD_0" : 13
                    },
                    "indices" : 14,
                    "material" : 3
                },
                {
                    "attributes" : {
                        "POSITION" : 15,
                        "NORMAL" : 16,
                        "TEXCOORD_0" : 17
                    },
                    "indices" : 18,
                    "material" : 4
                }
            ]
        }
    ],
    "accessors" : [
        {
            "bufferView" : 0,
            "componentType" : 5126,
            "count" : 64,
            "max" : [
                3.343186378479004,
                0.07499999552965164,
                1
            ],
            "min" : [
                -3.331944465637207,
                -0.07500001043081284,
                -0.9999999403953552
            ],
            "type" : "VEC3"
        },
        {
            "bufferView" : 1,
            "componentType" : 5126,
            "count" : 64,
            "type" : "VEC3"
        },
        {
            "bufferView" : 2,
            "componentType" : 5126,
            "count" : 64,
            "type" : "VEC2"
        },
        {
            "bufferView" : 3,
            "componentType" : 5123,
            "count" : 180,
            "type" : "SCALAR"
        },
        {
            "bufferView" : 4,
            "componentType" : 5126,
            "count" : 128,
            "max" : [
                3.343186378479004,
                0.07499999552965164,
                1
            ],
            "min" : [
                -3.331944465637207,
                -0.07500001043081284,
                -0.9999999403953552
            ],
            "type" : "VEC3"
        },
        {
            "bufferView" : 5,
            "componentType" : 5126,
            "count" : 128,
            "type" : "VEC3"
        },
        {
            "bufferView" : 6,
            "componentType" : 5126,
            "count" : 128,
            "type" : "VEC2"
        },
        {
            "bufferView" : 7,
            "componentType" : 5123,
            "count" : 192,
            "type" : "SCALAR"
        },
        {
            "bufferView" : 8,
            "componentType" : 5126,
            "count" : 5645,
            "max" : [
                2.074633836746216,
                0.02500000037252903,
                0.41025641560554504
            ],
            "min" : [
                -2.107600688934326,
                -0.02500000037252903,
                -0.3910256624221802
            ],
            "type" : "VEC3"
        },
        {
            "bufferView" : 9,
            "componentType" : 5126,
            "count" : 5645,
            "type" : "VEC3"
        },
        {
            "bufferView" : 10,
            "componentType" : 5123,
            "count" : 14388,
            "type" : "SCALAR"
        },
        {
            "bufferView" : 11,
            "componentType" : 5126,
            "count" : 48,
            "max" : [
                1.100000023841858,
                0.4000000059604645,
                1.100000023841858
            ],
            "min" : [
                -1.100000023841858,
                -0.025000005960464478,
                -1.100000023841858
            ],
            "type" : "VEC3"
        },
        {
            "bufferView" : 12,
            "componentType" : 5126,
            "count" : 48,
            "type" : "VEC3"
        },
        {
            "bufferView" : 13,
            "componentType" : 5126,
            "count" : 48,
            "type" : "VEC2"
        },
        {
            "bufferView" : 14,
            "componentType" : 5123,
            "count" : 72,
            "type" : "SCALAR"
        },
        {
            "bufferView" : 15,
            "componentType" : 5126,
            "count" : 14,
            "max" : [
                1.100000023841858,
                0.4000000059604645,
                1.100000023841858
            ],
            "min" : [
                -1.100000023841858,
                0.4000000059604645,
                -1.100000023841858
            ],
            "type" : "VEC3"
        },
        {
            "bufferView" : 16,
            "componentType" : 5126,
            "count" : 14,
            "type" : "VEC3"
        },
        {
            "bufferView" : 17,
            "componentType" : 5126,
            "count" : 14,
            "type" : "VEC2"
        },
        {
            "bufferView" : 18,
            "componentType" : 5123,
            "count" : 24,
            "type" : "SCALAR"
        }
    ],
    "bufferViews" : [
        {
            "buffer" : 0,
            "byteLength" : 768,
            "byteOffset" : 0
        },
        {
            "buffer" : 0,
            "byteLength" : 768,
            "byteOffset" : 768
        },
        {
            "buffer" : 0,
            "byteLength" : 512,
            "byteOffset" : 1536
        },
        {
            "buffer" : 0,
            "byteLength" : 360,
            "byteOffset" : 2048
        },
        {
            "buffer" : 0,
            "byteLength" : 1536,
            "byteOffset" : 2408
        },
        {
            "buffer" : 0,
            "byteLength" : 1536,
            "byteOffset" : 3944
        },
        {
            "buffer" : 0,
            "byteLength" : 1024,
            "byteOffset" : 5480
        },
        {
            "buffer" : 0,
            "byteLength" : 384,
            "byteOffset" : 6504
        },
        {
            "buffer" : 0,
            "byteLength" : 67740,
            "byteOffset" : 6888
        },
        {
            "buffer" : 0,
            "byteLength" : 67740,
            "byteOffset" : 74628
        },
        {
            "buffer" : 0,
            "byteLength" : 28776,
            "byteOffset" : 142368
        },
        {
            "buffer" : 0,
            "byteLength" : 576,
            "byteOffset" : 171144
        },
        {
            "buffer" : 0,
            "byteLength" : 576,
            "byteOffset" : 171720
        },
        {
            "buffer" : 0,
            "byteLength" : 384,
            "byteOffset" : 172296
        },
        {
            "buffer" : 0,
            "byteLength" : 144,
            "byteOffset" : 172680
        },
        {
            "buffer" : 0,
            "byteLength" : 168,
            "byteOffset" : 172824
        },
        {
            "buffer" : 0,
            "byteLength" : 168,
            "byteOffset" : 172992
        },
        {
            "buffer" : 0,
            "byteLength" : 112,
            "byteOffset" : 173160
        },
        {
            "buffer" : 0,
            "byteLength" : 48,
            "byteOffset" : 173272
        }
    ],
    "buffers" : [
        {
            "byteLength" : 173320,
            "uri" : "data:application/octet-stream;base64,"
        }
    ]
}
