<svg xmlns="http://www.w3.org/2000/svg" xmlns:xlink="http://www.w3.org/1999/xlink" viewBox="0 0 400 400"><defs><style>.a{fill:#020608;}.b{fill:#fff;}.c{fill:#000105;}.d{fill:none;}</style><symbol id="a" viewBox="0 0 1300 1454.7"><path class="a" d="M1175,256.7,800,40.19a300,300,0,0,0-300,0L125,256.7A250,250,0,0,0,0,473.21v606.21L650,1454.7l650-375.28V473.21A250,250,0,0,0,1175,256.7ZM651.1,1339.47,80.28,1010.15,500.89,767.49a300,300,0,0,1,300.27.26l418.56,242.4Z"/><path class="a" d="M717.32,1190.83c-15.75-9.09-15.83-23.79-.18-32.83l283.41-163.63c15.66-9,41.11-9,56.87.1s15.83,23.8.17,32.83L774.18,1190.93C758.53,1200,733.07,1199.92,717.32,1190.83Z"/><path class="a" d="M527.19,1081.06c-15.75-9.1-15.83-23.79-.18-32.83L716,939.14c15.65-9,41.11-9,56.86.11s15.83,23.79.18,32.82L584.05,1081.16C568.4,1090.2,542.94,1090.15,527.19,1081.06Z"/><path class="a" d="M242.58,1025.83c-15.75-9.09-15.83-23.79-.17-32.83L525.82,829.37c15.65-9,41.11-9,56.86.1s15.83,23.8.18,32.83L299.45,1025.93C283.79,1035,258.34,1034.92,242.58,1025.83Z"/><path class="a" d="M716.13,972c-15.75-9.09-15.83-23.79-.18-32.83,36.47-21,36.28-55.41-.41-76.6s-96.22-21.29-132.68-.24c-15.65,9-41.11,9-56.86-.1s-15.83-23.79-.18-32.83c67.72-39.1,178.25-38.9,246.4.45S840.71,933,773,972.07C757.34,981.11,731.88,981.07,716.13,972Z"/><path class="a" d="M527.78,1190.49c-68.14-39.35-68.49-103.16-.77-142.26,15.65-9,41.11-9,56.86.1s15.83,23.79.18,32.83c-36.47,21-36.28,55.42.41,76.6s96.22,21.29,132.68.24c15.65-9,41.11-9,56.86.1s15.83,23.8.18,32.83C706.46,1230,595.93,1229.83,527.78,1190.49Z"/></symbol></defs><title>m-3</title><rect class="b" y="0.07" width="400.07" height="400.07"/><use width="1300" height="1454.7" transform="translate(327.5 324.93) scale(0.03)" xlink:href="#a"/><rect class="a" y="200.14" width="200" height="200"/><rect class="b" y="237.64" width="162.5" height="162.5"/><rect class="c" x="300" y="200.11" width="100" height="100"/><rect class="a" x="300" y="100.14" width="100" height="100"/><rect class="a" x="49.24" y="247.49" width="4.92" height="4.92"/><rect class="a" x="54.17" y="247.49" width="4.92" height="4.92"/><rect class="a" x="68.94" y="247.49" width="4.92" height="4.92"/><rect class="a" x="73.86" y="247.49" width="4.92" height="4.92"/><rect class="a" x="78.79" y="247.49" width="4.92" height="4.92"/><rect class="a" x="88.64" y="247.49" width="4.92" height="4.92"/><rect class="a" x="93.56" y="247.49" width="4.92" height="4.92"/><rect class="a" x="98.49" y="247.49" width="4.92" height="4.92"/><rect class="a" x="108.33" y="247.49" width="4.92" height="4.92"/><rect class="a" x="59.09" y="252.41" width="4.92" height="4.92"/><rect class="a" x="68.94" y="252.41" width="4.92" height="4.92"/><rect class="a" x="73.86" y="252.41" width="4.92" height="4.92"/><rect class="a" x="78.79" y="252.41" width="4.92" height="4.92"/><rect class="a" x="83.71" y="252.41" width="4.92" height="4.92"/><rect class="a" x="93.56" y="252.41" width="4.92" height="4.92"/><rect class="a" x="103.41" y="252.41" width="4.92" height="4.92"/><rect class="a" x="108.33" y="252.41" width="4.92" height="4.92"/><rect class="a" x="59.09" y="257.34" width="4.92" height="4.92"/><rect class="a" x="64.02" y="257.34" width="4.92" height="4.92"/><rect class="a" x="78.79" y="257.34" width="4.92" height="4.92"/><rect class="a" x="93.56" y="257.34" width="4.92" height="4.92"/><rect class="a" x="103.41" y="257.34" width="4.92" height="4.92"/><rect class="a" x="49.24" y="262.26" width="4.92" height="4.92"/><rect class="a" x="54.17" y="262.26" width="4.92" height="4.92"/><rect class="a" x="59.09" y="262.26" width="4.92" height="4.92"/><rect class="a" x="64.02" y="262.26" width="4.92" height="4.92"/><rect class="a" x="68.94" y="262.26" width="4.92" height="4.92"/><rect class="a" x="98.49" y="262.26" width="4.92" height="4.92"/><rect class="a" x="49.24" y="267.19" width="4.92" height="4.92"/><rect class="a" x="68.94" y="267.19" width="4.92" height="4.92"/><rect class="a" x="93.56" y="267.19" width="4.92" height="4.92"/><rect class="a" x="98.49" y="267.19" width="4.92" height="4.92"/><rect class="a" x="49.24" y="272.11" width="4.92" height="4.92"/><rect class="a" x="68.94" y="272.11" width="4.92" height="4.92"/><rect class="a" x="88.64" y="272.11" width="4.92" height="4.92"/><rect class="a" x="98.49" y="272.11" width="4.92" height="4.92"/><rect class="a" x="103.41" y="272.11" width="4.92" height="4.92"/><rect class="a" x="49.24" y="277.03" width="4.92" height="4.92"/><rect class="a" x="59.09" y="277.03" width="4.92" height="4.92"/><rect class="a" x="68.94" y="277.03" width="4.92" height="4.92"/><rect class="a" x="78.79" y="277.03" width="4.92" height="4.92"/><rect class="a" x="88.64" y="277.03" width="4.92" height="4.92"/><rect class="a" x="98.49" y="277.03" width="4.92" height="4.92"/><rect class="a" x="108.33" y="277.03" width="4.92" height="4.92"/><rect class="a" x="49.24" y="281.96" width="4.92" height="4.92"/><rect class="a" x="54.17" y="281.96" width="4.92" height="4.92"/><rect class="a" x="59.09" y="281.96" width="4.92" height="4.92"/><rect class="a" x="64.02" y="281.96" width="4.92" height="4.92"/><rect class="a" x="68.94" y="281.96" width="4.92" height="4.92"/><rect class="a" x="73.86" y="281.96" width="4.92" height="4.92"/><rect class="a" x="83.71" y="281.96" width="4.92" height="4.92"/><rect class="a" x="88.64" y="281.96" width="4.92" height="4.92"/><rect class="a" x="93.56" y="281.96" width="4.92" height="4.92"/><rect class="a" x="98.49" y="281.96" width="4.92" height="4.92"/><rect class="a" x="108.33" y="281.96" width="4.92" height="4.92"/><rect class="a" x="9.85" y="286.88" width="4.92" height="4.92"/><rect class="a" x="29.55" y="286.88" width="4.92" height="4.92"/><rect class="a" x="39.39" y="286.88" width="4.92" height="4.92"/><rect class="a" x="44.32" y="286.88" width="4.92" height="4.92"/><rect class="a" x="49.24" y="286.88" width="4.92" height="4.92"/><rect class="a" x="59.09" y="286.88" width="4.92" height="4.92"/><rect class="a" x="73.86" y="286.88" width="4.92" height="4.92"/><rect class="a" x="93.56" y="286.88" width="4.92" height="4.92"/><rect class="a" x="103.41" y="286.88" width="4.92" height="4.92"/><rect class="a" x="113.26" y="286.88" width="4.92" height="4.92"/><rect class="a" x="118.18" y="286.88" width="4.92" height="4.92"/><rect class="a" x="123.11" y="286.88" width="4.92" height="4.92"/><rect class="a" x="128.03" y="286.88" width="4.92" height="4.92"/><rect class="a" x="132.95" y="286.88" width="4.92" height="4.92"/><rect class="a" x="147.73" y="286.88" width="4.92" height="4.92"/><rect class="a" x="9.85" y="291.81" width="4.92" height="4.92"/><rect class="a" x="19.7" y="291.81" width="4.92" height="4.92"/><rect class="a" x="24.62" y="291.81" width="4.92" height="4.92"/><rect class="a" x="29.55" y="291.81" width="4.92" height="4.92"/><rect class="a" x="34.47" y="291.81" width="4.92" height="4.92"/><rect class="a" x="49.24" y="291.81" width="4.92" height="4.92"/><rect class="a" x="54.17" y="291.81" width="4.92" height="4.92"/><rect class="a" x="68.94" y="291.81" width="4.92" height="4.92"/><rect class="a" x="73.86" y="291.81" width="4.92" height="4.92"/><rect class="a" x="78.79" y="291.81" width="4.92" height="4.92"/><rect class="a" x="88.64" y="291.81" width="4.92" height="4.92"/><rect class="a" x="93.56" y="291.81" width="4.92" height="4.92"/><rect class="a" x="98.49" y="291.81" width="4.92" height="4.92"/><rect class="a" x="118.18" y="291.81" width="4.92" height="4.92"/><rect class="a" x="123.11" y="291.81" width="4.92" height="4.92"/><rect class="a" x="128.03" y="291.81" width="4.92" height="4.92"/><rect class="a" x="132.95" y="291.81" width="4.92" height="4.92"/><rect class="a" x="137.88" y="291.81" width="4.92" height="4.92"/><rect class="a" x="142.8" y="291.81" width="4.92" height="4.92"/><rect class="a" x="147.73" y="291.81" width="4.92" height="4.92"/><rect class="a" x="14.77" y="296.73" width="4.92" height="4.92"/><rect class="a" x="19.7" y="296.73" width="4.92" height="4.92"/><rect class="a" x="24.62" y="296.73" width="4.92" height="4.92"/><rect class="a" x="39.39" y="296.73" width="4.92" height="4.92"/><rect class="a" x="49.24" y="296.73" width="4.92" height="4.92"/><rect class="a" x="54.17" y="296.73" width="4.92" height="4.92"/><rect class="a" x="64.02" y="296.73" width="4.92" height="4.92"/><rect class="a" x="88.64" y="296.73" width="4.92" height="4.92"/><rect class="a" x="98.49" y="296.73" width="4.92" height="4.92"/><rect class="a" x="123.11" y="296.73" width="4.92" height="4.92"/><rect class="a" x="147.73" y="296.73" width="4.92" height="4.92"/><rect class="a" x="14.77" y="301.66" width="4.92" height="4.92"/><rect class="a" x="24.62" y="301.66" width="4.92" height="4.92"/><rect class="a" x="34.47" y="301.66" width="4.92" height="4.92"/><rect class="a" x="49.24" y="301.66" width="4.92" height="4.92"/><rect class="a" x="64.02" y="301.66" width="4.92" height="4.92"/><rect class="a" x="78.79" y="301.66" width="4.92" height="4.92"/><rect class="a" x="93.56" y="301.66" width="4.92" height="4.92"/><rect class="a" x="98.49" y="301.66" width="4.92" height="4.92"/><rect class="a" x="132.95" y="301.66" width="4.92" height="4.92"/><rect class="a" x="142.8" y="301.66" width="4.92" height="4.92"/><rect class="a" x="147.73" y="301.66" width="4.92" height="4.92"/><rect class="a" x="19.7" y="306.58" width="4.92" height="4.92"/><rect class="a" x="34.47" y="306.58" width="4.92" height="4.92"/><rect class="a" x="39.39" y="306.58" width="4.92" height="4.92"/><rect class="a" x="44.32" y="306.58" width="4.92" height="4.92"/><rect class="a" x="59.09" y="306.58" width="4.92" height="4.92"/><rect class="a" x="64.02" y="306.58" width="4.92" height="4.92"/><rect class="a" x="68.94" y="306.58" width="4.92" height="4.92"/><rect class="a" x="73.86" y="306.58" width="4.92" height="4.92"/><rect class="a" x="78.79" y="306.58" width="4.92" height="4.92"/><rect class="a" x="83.71" y="306.58" width="4.92" height="4.92"/><rect class="a" x="93.56" y="306.58" width="4.92" height="4.92"/><rect class="a" x="98.49" y="306.58" width="4.92" height="4.92"/><rect class="a" x="108.33" y="306.58" width="4.92" height="4.92"/><rect class="a" x="113.26" y="306.58" width="4.92" height="4.92"/><rect class="a" x="123.11" y="306.58" width="4.92" height="4.92"/><rect class="a" x="142.8" y="306.58" width="4.92" height="4.92"/><rect class="a" x="9.85" y="311.5" width="4.92" height="4.92"/><rect class="a" x="19.7" y="311.5" width="4.92" height="4.92"/><rect class="a" x="54.17" y="311.5" width="4.92" height="4.92"/><rect class="a" x="64.02" y="311.5" width="4.92" height="4.92"/><rect class="a" x="93.56" y="311.5" width="4.92" height="4.92"/><rect class="a" x="98.49" y="311.5" width="4.92" height="4.92"/><rect class="a" x="113.26" y="311.5" width="4.92" height="4.92"/><rect class="a" x="118.18" y="311.5" width="4.92" height="4.92"/><rect class="a" x="123.11" y="311.5" width="4.92" height="4.92"/><rect class="a" x="128.03" y="311.5" width="4.92" height="4.92"/><rect class="a" x="132.95" y="311.5" width="4.92" height="4.92"/><rect class="a" x="137.88" y="311.5" width="4.92" height="4.92"/><rect class="a" x="142.8" y="311.5" width="4.92" height="4.92"/><rect class="a" x="147.73" y="311.5" width="4.92" height="4.92"/><rect class="a" x="19.7" y="316.43" width="4.92" height="4.92"/><rect class="a" x="29.55" y="316.43" width="4.92" height="4.92"/><rect class="a" x="39.39" y="316.43" width="4.92" height="4.92"/><rect class="a" x="49.24" y="316.43" width="4.92" height="4.92"/><rect class="a" x="64.02" y="316.43" width="4.92" height="4.92"/><rect class="a" x="73.86" y="316.43" width="4.92" height="4.92"/><rect class="a" x="78.79" y="316.43" width="4.92" height="4.92"/><rect class="a" x="83.71" y="316.43" width="4.92" height="4.92"/><rect class="a" x="98.49" y="316.43" width="4.92" height="4.92"/><rect class="a" x="118.18" y="316.43" width="4.92" height="4.92"/><rect class="a" x="132.95" y="316.43" width="4.92" height="4.92"/><rect class="a" x="137.88" y="316.43" width="4.92" height="4.92"/><rect class="a" x="147.73" y="316.43" width="4.92" height="4.92"/><rect class="a" x="14.77" y="321.35" width="4.92" height="4.92"/><rect class="a" x="24.62" y="321.35" width="4.92" height="4.92"/><rect class="a" x="29.55" y="321.35" width="4.92" height="4.92"/><rect class="a" x="44.32" y="321.35" width="4.92" height="4.92"/><rect class="a" x="54.17" y="321.35" width="4.92" height="4.92"/><rect class="a" x="73.86" y="321.35" width="4.92" height="4.92"/><rect class="a" x="93.56" y="321.35" width="4.92" height="4.92"/><rect class="a" x="98.49" y="321.35" width="4.92" height="4.92"/><rect class="a" x="108.33" y="321.35" width="4.92" height="4.92"/><rect class="a" x="118.18" y="321.35" width="4.92" height="4.92"/><rect class="a" x="128.03" y="321.35" width="4.92" height="4.92"/><rect class="a" x="142.8" y="321.35" width="4.92" height="4.92"/><rect class="a" x="147.73" y="321.35" width="4.92" height="4.92"/><rect class="a" x="14.77" y="326.28" width="4.92" height="4.92"/><rect class="a" x="19.7" y="326.28" width="4.92" height="4.92"/><rect class="a" x="29.55" y="326.28" width="4.92" height="4.92"/><rect class="a" x="34.47" y="326.28" width="4.92" height="4.92"/><rect class="a" x="39.39" y="326.28" width="4.92" height="4.92"/><rect class="a" x="44.32" y="326.28" width="4.92" height="4.92"/><rect class="a" x="54.17" y="326.28" width="4.92" height="4.92"/><rect class="a" x="59.09" y="326.28" width="4.92" height="4.92"/><rect class="a" x="64.02" y="326.28" width="4.92" height="4.92"/><rect class="a" x="68.94" y="326.28" width="4.92" height="4.92"/><rect class="a" x="73.86" y="326.28" width="4.92" height="4.92"/><rect class="a" x="83.71" y="326.28" width="4.92" height="4.92"/><rect class="a" x="103.41" y="326.28" width="4.92" height="4.92"/><rect class="a" x="113.26" y="326.28" width="4.92" height="4.92"/><rect class="a" x="142.8" y="326.28" width="4.92" height="4.92"/><rect class="a" x="9.85" y="331.2" width="4.92" height="4.92"/><rect class="a" x="24.62" y="331.2" width="4.92" height="4.92"/><rect class="a" x="34.47" y="331.2" width="4.92" height="4.92"/><rect class="a" x="54.17" y="331.2" width="4.92" height="4.92"/><rect class="a" x="64.02" y="331.2" width="4.92" height="4.92"/><rect class="a" x="73.86" y="331.2" width="4.92" height="4.92"/><rect class="a" x="78.79" y="331.2" width="4.92" height="4.92"/><rect class="a" x="83.71" y="331.2" width="4.92" height="4.92"/><rect class="a" x="98.49" y="331.2" width="4.92" height="4.92"/><rect class="a" x="113.26" y="331.2" width="4.92" height="4.92"/><rect class="a" x="118.18" y="331.2" width="4.92" height="4.92"/><rect class="a" x="128.03" y="331.2" width="4.92" height="4.92"/><rect class="a" x="132.95" y="331.2" width="4.92" height="4.92"/><rect class="a" x="142.8" y="331.2" width="4.92" height="4.92"/><rect class="a" x="147.73" y="331.2" width="4.92" height="4.92"/><rect class="a" x="29.55" y="336.12" width="4.92" height="4.92"/><rect class="a" x="34.47" y="336.12" width="4.92" height="4.92"/><rect class="a" x="39.39" y="336.12" width="4.92" height="4.92"/><rect class="a" x="44.32" y="336.12" width="4.92" height="4.92"/><rect class="a" x="68.94" y="336.12" width="4.92" height="4.92"/><rect class="a" x="83.71" y="336.12" width="4.92" height="4.92"/><rect class="a" x="88.64" y="336.12" width="4.92" height="4.92"/><rect class="a" x="93.56" y="336.12" width="4.92" height="4.92"/><rect class="a" x="108.33" y="336.12" width="4.92" height="4.92"/><rect class="a" x="113.26" y="336.12" width="4.92" height="4.92"/><rect class="a" x="118.18" y="336.12" width="4.92" height="4.92"/><rect class="a" x="123.11" y="336.12" width="4.92" height="4.92"/><rect class="a" x="128.03" y="336.12" width="4.92" height="4.92"/><rect class="a" x="137.88" y="336.12" width="4.92" height="4.92"/><rect class="a" x="147.73" y="336.12" width="4.92" height="4.92"/><rect class="a" x="44.32" y="341.05" width="4.92" height="4.92"/><rect class="a" x="49.24" y="341.05" width="4.92" height="4.92"/><rect class="a" x="54.17" y="341.05" width="4.92" height="4.92"/><rect class="a" x="64.02" y="341.05" width="4.92" height="4.92"/><rect class="a" x="78.79" y="341.05" width="4.92" height="4.92"/><rect class="a" x="88.64" y="341.05" width="4.92" height="4.92"/><rect class="a" x="93.56" y="341.05" width="4.92" height="4.92"/><rect class="a" x="98.49" y="341.05" width="4.92" height="4.92"/><rect class="a" x="113.26" y="341.05" width="4.92" height="4.92"/><rect class="a" x="123.11" y="341.05" width="4.92" height="4.92"/><rect class="a" x="142.8" y="341.05" width="4.92" height="4.92"/><rect class="a" x="147.73" y="341.05" width="4.92" height="4.92"/><rect class="a" x="9.85" y="345.97" width="4.92" height="4.92"/><rect class="a" x="14.77" y="345.97" width="4.92" height="4.92"/><rect class="a" x="19.7" y="345.97" width="4.92" height="4.92"/><rect class="a" x="24.62" y="345.97" width="4.92" height="4.92"/><rect class="a" x="39.39" y="345.97" width="4.92" height="4.92"/><rect class="a" x="44.32" y="345.97" width="4.92" height="4.92"/><rect class="a" x="59.09" y="345.97" width="4.92" height="4.92"/><rect class="a" x="73.86" y="345.97" width="4.92" height="4.92"/><rect class="a" x="78.79" y="345.97" width="4.92" height="4.92"/><rect class="a" x="88.64" y="345.97" width="4.92" height="4.92"/><rect class="a" x="108.33" y="345.97" width="4.92" height="4.92"/><rect class="a" x="113.26" y="345.97" width="4.92" height="4.92"/><rect class="a" x="118.18" y="345.97" width="4.92" height="4.92"/><rect class="a" x="123.11" y="345.97" width="4.92" height="4.92"/><rect class="a" x="128.03" y="345.97" width="4.92" height="4.92"/><rect class="a" x="132.95" y="345.97" width="4.92" height="4.92"/><rect class="a" x="147.73" y="345.97" width="4.92" height="4.92"/><rect class="a" x="49.24" y="350.9" width="4.92" height="4.92"/><rect class="a" x="54.17" y="350.9" width="4.92" height="4.92"/><rect class="a" x="64.02" y="350.9" width="4.92" height="4.92"/><rect class="a" x="83.71" y="350.9" width="4.92" height="4.92"/><rect class="a" x="88.64" y="350.9" width="4.92" height="4.92"/><rect class="a" x="103.41" y="350.9" width="4.92" height="4.92"/><rect class="a" x="108.33" y="350.9" width="4.92" height="4.92"/><rect class="a" x="128.03" y="350.9" width="4.92" height="4.92"/><rect class="a" x="147.73" y="350.9" width="4.92" height="4.92"/><rect class="a" x="49.24" y="355.82" width="4.92" height="4.92"/><rect class="a" x="54.17" y="355.82" width="4.92" height="4.92"/><rect class="a" x="59.09" y="355.82" width="4.92" height="4.92"/><rect class="a" x="64.02" y="355.82" width="4.92" height="4.92"/><rect class="a" x="73.86" y="355.82" width="4.92" height="4.92"/><rect class="a" x="78.79" y="355.82" width="4.92" height="4.92"/><rect class="a" x="83.71" y="355.82" width="4.92" height="4.92"/><rect class="a" x="103.41" y="355.82" width="4.92" height="4.92"/><rect class="a" x="108.33" y="355.82" width="4.92" height="4.92"/><rect class="a" x="118.18" y="355.82" width="4.92" height="4.92"/><rect class="a" x="128.03" y="355.82" width="4.92" height="4.92"/><rect class="a" x="132.95" y="355.82" width="4.92" height="4.92"/><rect class="a" x="137.88" y="355.82" width="4.92" height="4.92"/><rect class="a" x="147.73" y="355.82" width="4.92" height="4.92"/><rect class="a" x="54.17" y="360.75" width="4.92" height="4.92"/><rect class="a" x="68.94" y="360.75" width="4.92" height="4.92"/><rect class="a" x="73.86" y="360.75" width="4.92" height="4.92"/><rect class="a" x="83.71" y="360.75" width="4.92" height="4.92"/><rect class="a" x="93.56" y="360.75" width="4.92" height="4.92"/><rect class="a" x="103.41" y="360.75" width="4.92" height="4.92"/><rect class="a" x="108.33" y="360.75" width="4.92" height="4.92"/><rect class="a" x="128.03" y="360.75" width="4.92" height="4.92"/><rect class="a" x="147.73" y="360.75" width="4.92" height="4.92"/><rect class="a" x="49.24" y="365.67" width="4.92" height="4.92"/><rect class="a" x="59.09" y="365.67" width="4.92" height="4.92"/><rect class="a" x="73.86" y="365.67" width="4.92" height="4.92"/><rect class="a" x="88.64" y="365.67" width="4.92" height="4.92"/><rect class="a" x="103.41" y="365.67" width="4.92" height="4.92"/><rect class="a" x="108.33" y="365.67" width="4.92" height="4.92"/><rect class="a" x="113.26" y="365.67" width="4.92" height="4.92"/><rect class="a" x="118.18" y="365.67" width="4.92" height="4.92"/><rect class="a" x="123.11" y="365.67" width="4.92" height="4.92"/><rect class="a" x="128.03" y="365.67" width="4.92" height="4.92"/><rect class="a" x="132.95" y="365.67" width="4.92" height="4.92"/><rect class="a" x="54.17" y="370.59" width="4.92" height="4.92"/><rect class="a" x="64.02" y="370.59" width="4.92" height="4.92"/><rect class="a" x="73.86" y="370.59" width="4.92" height="4.92"/><rect class="a" x="78.79" y="370.59" width="4.92" height="4.92"/><rect class="a" x="83.71" y="370.59" width="4.92" height="4.92"/><rect class="a" x="88.64" y="370.59" width="4.92" height="4.92"/><rect class="a" x="123.11" y="370.59" width="4.92" height="4.92"/><rect class="a" x="147.73" y="370.59" width="4.92" height="4.92"/><rect class="a" x="73.86" y="375.52" width="4.92" height="4.92"/><rect class="a" x="78.79" y="375.52" width="4.92" height="4.92"/><rect class="a" x="83.71" y="375.52" width="4.92" height="4.92"/><rect class="a" x="93.56" y="375.52" width="4.92" height="4.92"/><rect class="a" x="98.49" y="375.52" width="4.92" height="4.92"/><rect class="a" x="103.41" y="375.52" width="4.92" height="4.92"/><rect class="a" x="113.26" y="375.52" width="4.92" height="4.92"/><rect class="a" x="132.95" y="375.52" width="4.92" height="4.92"/><rect class="a" x="137.88" y="375.52" width="4.92" height="4.92"/><rect class="a" x="142.8" y="375.52" width="4.92" height="4.92"/><rect class="a" x="147.73" y="375.52" width="4.92" height="4.92"/><rect class="a" x="54.17" y="380.44" width="4.92" height="4.92"/><rect class="a" x="68.94" y="380.44" width="4.92" height="4.92"/><rect class="a" x="93.56" y="380.44" width="4.92" height="4.92"/><rect class="a" x="108.33" y="380.44" width="4.92" height="4.92"/><rect class="a" x="132.95" y="380.44" width="4.92" height="4.92"/><rect class="a" x="142.8" y="380.44" width="4.92" height="4.92"/><rect class="a" x="147.73" y="380.44" width="4.92" height="4.92"/><rect class="a" x="49.24" y="385.37" width="4.92" height="4.92"/><rect class="a" x="54.17" y="385.37" width="4.92" height="4.92"/><rect class="a" x="59.09" y="385.37" width="4.92" height="4.92"/><rect class="a" x="64.02" y="385.37" width="4.92" height="4.92"/><rect class="a" x="68.94" y="385.37" width="4.92" height="4.92"/><rect class="a" x="73.86" y="385.37" width="4.92" height="4.92"/><rect class="a" x="83.71" y="385.37" width="4.92" height="4.92"/><rect class="a" x="93.56" y="385.37" width="4.92" height="4.92"/><rect class="a" x="108.33" y="385.37" width="4.92" height="4.92"/><rect class="a" x="118.18" y="385.37" width="4.92" height="4.92"/><rect class="a" x="128.03" y="385.37" width="4.92" height="4.92"/><rect class="a" x="132.95" y="385.37" width="4.92" height="4.92"/><rect class="a" x="142.8" y="385.37" width="4.92" height="4.92"/><rect class="d" x="15.02" y="252.66" width="24.13" height="24.13"/><path class="a" d="M39.15,247.49H9.85V282H44.32V247.49Zm0,29.3H15V252.66H39.15Z"/><rect class="d" x="123.35" y="252.66" width="24.13" height="24.13"/><path class="a" d="M147.48,247.49h-29.3V282h34.47V247.49Zm0,29.3H123.35V252.66h24.13Z"/><rect class="d" x="15.02" y="360.99" width="24.13" height="24.13"/><path class="a" d="M39.15,355.82H9.85v34.47H44.32V355.82Zm0,29.3H15V361H39.15Z"/><rect class="a" x="19.7" y="257.34" width="14.77" height="14.77"/><rect class="a" x="128.03" y="257.34" width="14.77" height="14.77"/><rect class="a" x="19.7" y="365.67" width="14.77" height="14.77"/></svg>